<?xml version="1.0" encoding="utf-8"?>
<!-- Generator: Adobe Illustrator 25.0.0, SVG Export Plug-In . SVG Version: 6.00 Build 0)  -->
<svg version="1.1" id="Capa_1" xmlns="http://www.w3.org/2000/svg" xmlns:xlink="http://www.w3.org/1999/xlink" x="0px" y="0px"
	 viewBox="0 0 685.7 226.21" style="enable-background:new 0 0 685.7 226.21;" xml:space="preserve">
<style type="text/css">
	.st0{fill:#EAC108;}
	.st1{fill:#2D2D6E;}
	.st2{fill:#FFFFFF;}
	.st3{fill:#FEFEFF;}
	.st4{fill:#F1CCBD;}
	.st5{fill:#B5B2B1;}
	.st6{fill:#B3B0AF;}
	.st7{fill:#13130E;}
	.st8{fill:#C61E1D;}
	.st9{fill:#243F93;}
	.st10{fill:#4489C9;}
	.st11{fill:#E11C37;}
	.st12{fill:#ABDDF4;}
	.st13{fill:#E41D3D;}
	.st14{fill:#DF1B31;}
	.st15{fill:#E11D35;}
	.st16{fill:#E31D3D;}
	.st17{fill:#46BEEE;}
	.st18{fill:#2DAEE5;}
	.st19{fill:#56C1EE;}
	.st20{fill:#77CBF0;}
	.st21{fill:#60C5F0;}
	.st22{fill:#3EBBEC;}
	.st23{fill:#28ACE3;}
	.st24{fill:#92D3F2;}
	.st25{fill:#99D5F2;}
	.st26{fill:#2AABE3;}
	.st27{fill:#3BB9EB;}
	.st28{fill:#65C7F2;}
	.st29{fill:#70C9F1;}
	.st30{fill:#36B7EA;}
	.st31{fill:#32B5E9;}
	.st32{fill:#87D0F1;}
	.st33{fill:#A6DAF5;}
	.st34{fill:#2FB2E7;}
	.st35{fill:#2BB3E9;}
	.st36{fill:#33B0E6;}
	.st37{fill:#80CEF1;}
	.st38{fill:#83CEF0;}
	.st39{fill:#A2D9F4;}
	.st40{fill:#51BFEE;}
	.st41{fill:#2CB1E7;}
	.st42{fill:#34B3E8;}
	.st43{fill:#46BCED;}
	.st44{fill:#E21C3B;}
	.st45{fill:#E4203E;}
	.st46{fill:#E11F3A;}
	.st47{fill:#F5FAF6;}
	.st48{fill:#DF1D32;}
	.st49{fill:#E22E4B;}
	.st50{fill:#FBF9F9;}
	.st51{fill:#FAF8F9;}
	.st52{fill:#E11D33;}
	.st53{fill:#FBFAFA;}
	.st54{fill:#E21F33;}
	.st55{fill:#E41C3E;}
	.st56{fill:#E01E33;}
	.st57{fill:#FDFDFD;}
	.st58{fill:#E21F3B;}
	.st59{fill:#FDFCFB;}
</style>
<g>
	<path class="st0" d="M635.33,133.26c5.98,3.58,11.44,6.83,16.87,10.12c1.28,0.77,2.55,1.59,3.68,2.57
		c3.97,3.45,3.86,6.97-0.67,9.66c-5.49,3.27-11.54,5.35-17.73,6.89c-12.1,3.01-24.18,6.13-36.68,7.22
		c-4.23,0.37-8.25-0.21-12.14-1.51c-6.64-2.22-9.07-7.76-6.4-14.39c3.03-7.54,8.7-13.03,14.83-18.03c4.54-3.7,9.29-7.13,14.35-10.99
		c-8.46-4.7-16.55-9.29-24.75-13.71c-9.67-5.21-19.44-10.23-29.14-15.38c-10.58-5.61-11.4-7.95-5.63-18.42
		c7.33-13.3,17.31-24.71,26.69-36.53c7.86-9.9,16.3-19.24,25.59-27.81c2.4-2.22,4.95-4.22,7.84-5.72c7.3-3.8,14.01-1.4,17.16,6.21
		c2.31,5.58,3.13,11.54,3.89,17.47c1.33,10.42,1.78,20.9,1.51,31.39c-0.08,2.9,0.91,4.05,3.6,4.95c7.33,2.45,14.76,4.67,21.78,7.96
		c2.82,1.32,5.63,2.71,8.29,4.33c10.87,6.59,12.33,15.87,3.99,25.58c-5.08,5.92-11.31,10.54-17.69,14.95
		C648.33,124.4,642.04,128.67,635.33,133.26z"/>
	<path class="st1" d="M288.15,103.91c-12.58,0-24.31,0.04-36.04-0.05c-1.32-0.01-3.47,1-3.84-1.08c-0.4-2.28-0.17-4.73,0.15-7.06
		c0.11-0.77,1.55-0.46,2.4-0.46c15.12-0.01,30.23,0.02,45.35-0.05c2.02-0.01,2.78,0.43,2.85,2.65c0.14,4-0.73,7.3-3.29,10.64
		c-11.56,15.03-22.82,30.3-34.17,45.49c-0.72,0.96-1.38,1.97-2.44,3.49c2.29,0,3.98,0,5.68,0c10.74,0,21.49,0.05,32.23-0.04
		c2.11-0.02,3.17,0.29,3.08,2.8c-0.24,7.01,0.62,5.57-5.45,5.61c-14.37,0.08-28.73-0.05-43.1,0.09c-2.74,0.03-3.6-0.6-3.62-3.48
		c-0.02-3.78,0.86-6.83,3.25-9.91c11.64-14.97,23.04-30.14,34.52-45.24C286.37,106.45,286.98,105.55,288.15,103.91z"/>
	<path class="st1" d="M20.39,165.87c8.08-21.21,15.92-41.8,23.77-62.4c0.58-1.51,1.39-2.98,1.69-4.54c0.62-3.26,2.63-3.58,5.57-3.85
		c4.59-0.42,6.29,1.38,7.76,5.59c7.23,20.7,14.83,41.27,22.45,61.83c1.08,2.92,0.6,3.57-2.44,3.43c-7.75-0.35-5.63,1.2-8.26-5.72
		c-1.72-4.54-3.32-9.13-4.85-13.74c-0.56-1.68-1.43-2.31-3.24-2.28c-7.36,0.1-14.73,0.12-22.09-0.01c-2.03-0.04-2.85,0.8-3.46,2.55
		c-1.84,5.3-3.93,10.51-5.65,15.84c-0.82,2.53-2,3.72-4.76,3.37C24.91,165.67,22.9,165.87,20.39,165.87z"/>
	<path class="st1" d="M230.86,158.43c-5.88,6.5-12.7,9.11-20.87,8.13c-8.02-0.96-14.01-6.2-14.81-13.07
		c-0.88-7.63,3.14-13.59,11.16-16.51c6.79-2.47,13.93-2.9,21.02-3.29c2.93-0.16,3.43-1.21,3.32-3.83
		c-0.44-10.37-7.1-15.23-16.89-12.15c-2.1,0.66-3.75,1.87-5.02,3.69c-0.56,0.8-0.48,2.66-2.08,2.11c-2.33-0.81-4.6-1.88-6.75-3.1
		c-0.57-0.33,0.29-1.33,0.66-1.92c1.57-2.48,3.64-4.49,6.3-5.72c8.94-4.11,17.77-3.55,26.16,1.42c5,2.96,6.46,8.07,6.64,13.52
		c0.25,7.74,0.33,15.48,0.42,23.22c0.05,4.25,0,8.51,0.88,12.68c0.38,1.81,0.01,2.35-1.92,2.43
		C232.68,166.33,232.69,166.42,230.86,158.43z"/>
	<path class="st1" d="M543.57,158.2c-5.84,6.47-12.47,9.24-20.52,8.43c-8.49-0.86-14.59-6.09-15.36-13.31
		c-0.84-7.84,3.48-13.86,12.02-16.65c6.72-2.2,13.72-2.58,20.69-3.03c2.33-0.15,2.84-0.92,2.83-3.13
		c-0.06-10.77-6.98-16.03-17.01-12.77c-2.09,0.68-4.12,1.73-4.87,3.79c-1.01,2.8-2.54,1.94-4.33,1.19
		c-5.63-2.35-5.79-3.29-1.23-7.47c7.64-6.98,24.66-6.73,31.89,0.56c3.35,3.38,4.48,7.7,4.58,12.32c0.16,8.36,0.25,16.72,0.41,25.08
		c0.05,2.49,0.27,4.98,0.33,7.48c0.05,1.68,1.58,4.1,0.2,4.84c-2.22,1.19-5.1,0.49-7.7,0.31c-0.94-0.07-0.9-1.06-1.02-1.76
		C544.21,162.39,543.96,160.68,543.57,158.2z"/>
	<path class="st1" d="M332.03,140.06c-5.62,0-11.24-0.01-16.85,0.01c-1.04,0.01-2.13-0.32-2.42,1.45
		c-1.79,10.75,8.33,20.57,19,18.38c2.53-0.52,4.69-1.64,6.52-3.43c1.99-1.94,7.41-2.47,9.43-0.84c1.44,1.16-0.05,1.95-0.61,2.7
		c-9.63,12.92-32.66,11.25-40.02-3.17c-5.19-10.17-5.48-20.93-0.82-31.45c4.01-9.04,13.32-14.15,23.48-13.44
		c9.64,0.67,16.99,6.74,19.97,16.53c1.02,3.36,1.45,6.8,1.64,10.31c0.12,2.24-0.42,3.08-2.84,3.01
		C343.02,139.94,337.52,140.06,332.03,140.06z"/>
	<path class="st1" d="M434.62,140.06c-5.37,0-10.74,0.15-16.11-0.06c-2.8-0.11-3.26,0.9-3.04,3.44
		c1.01,11.86,9.04,18.73,19.32,16.37c2.39-0.55,4.41-1.68,6.14-3.37c1.95-1.9,7.44-2.34,9.47-0.82c0.92,0.69,0.44,1.31-0.01,1.86
		c-1.02,1.26-2.01,2.56-3.2,3.65c-12.27,11.18-33.43,6.16-39.03-9.42c-3.37-9.36-3.48-18.87,0.74-28.07
		c4.08-8.89,13.07-13.95,23.16-13.39c9.43,0.53,16.62,6.1,19.93,15.56c1.33,3.79,1.85,7.73,2.01,11.75
		c0.08,1.98-0.57,2.57-2.53,2.53C445.86,139.98,440.24,140.06,434.62,140.06z"/>
	<path class="st1" d="M365.94,119.55c4.81-6.54,11.08-9.35,18.91-8.58c8.93,0.89,15.52,7.19,15.8,16.1
		c0.4,12.22,0.19,24.46,0.3,36.68c0.02,1.64-0.56,2.06-2.15,2.15c-6.79,0.42-6.78,0.48-6.79-6.18c-0.01-9.36,0.05-18.72-0.05-28.08
		c-0.08-7.47-3.53-11.45-10.34-12.27c-6.96-0.84-13.76,3.4-15.37,9.76c-0.48,1.91-0.63,3.95-0.65,5.92
		c-0.07,9.23-0.11,18.47,0.01,27.7c0.03,2.39-0.56,3.52-3.07,3.11c-0.49-0.08-1.01-0.08-1.49,0c-3.5,0.61-4.62-0.6-4.56-4.34
		c0.24-15.1,0.17-30.2,0.04-45.3c-0.03-2.86,0.58-3.94,3.67-3.78C365.08,112.71,365.09,112.5,365.94,119.55z"/>
	<path class="st1" d="M84.75,155.94c2.84-0.54,5.38-1.01,7.91-1.49c1.12-0.22,1.73,0.36,2.5,1.14c4.93,4.96,14.89,6.19,20.88,2.7
		c5.23-3.05,5.42-9.58,0.34-12.85c-3.21-2.07-6.93-2.76-10.57-3.62c-4.01-0.95-8.09-1.65-11.87-3.35c-8.89-4-11.02-15.06-4.31-22.12
		c7.92-8.34,26.53-7.77,34.04,0.98c1.91,2.23,2.55,3.64-1.02,4.87c-2.9,1-4.93,2.06-7.62-1.08c-3.66-4.27-10.85-4.98-15.61-2.53
		c-2.7,1.39-4.67,3.41-4.62,6.69c0.05,3.06,2.19,4.62,4.61,5.83c3.28,1.63,6.86,2.26,10.4,3.03c4.03,0.87,8.03,1.86,11.73,3.76
		c8.39,4.31,10.48,14.14,4.59,21.52c-8.42,10.54-31.55,10.21-39.61-0.58C85.93,158.05,85.49,157.17,84.75,155.94z"/>
	<path class="st1" d="M468.15,138.56c-0.02,4.41,0.56,8.73,2.49,12.74c4.9,10.16,17.7,11.98,25.11,3.61
		c1.18-1.33,7.87-0.18,8.4,1.55c0.38,1.24-0.84,1.97-1.5,2.82c-8.63,11.09-33.98,11.75-41.71-6.63c-4.3-10.23-3.91-20.57,1.4-30.33
		c7.68-14.1,29.71-16.38,40.24-4.46c1.98,2.24,2.1,3.21-1.01,4.57c-3.37,1.48-5.22,1.55-7.9-1.65c-5.47-6.51-16.9-4.97-21.73,2.36
		C469.49,126.84,468.14,132.37,468.15,138.56z"/>
	<path class="st1" d="M139.96,139.97c0-5.74-0.13-11.49,0.06-17.23c0.08-2.61-0.71-3.71-3.35-3.31c-0.49,0.07-1.01-0.05-1.5,0.02
		c-2.71,0.38-3.93-0.34-3.83-3.51c0.09-2.9,0.49-4.56,3.81-3.95c3.83,0.7,5.45-0.75,4.85-4.74c-0.28-1.83,0.05-3.74-0.07-5.61
		c-0.11-1.74,0.52-2.67,2.15-3.41c7.26-3.33,7.24-3.38,7.24,4.51c0,0.37-0.01,0.75,0,1.12c0.04,2.49-0.79,5.55,0.36,7.32
		c1.31,2.02,4.6,0.73,7.01,0.75c3.62,0.03,2.13,2.6,2.36,4.26c0.25,1.83,0.22,3.26-2.53,3.32c-7.2,0.14-7.21,0.29-7.2,7.51
		c0.01,8.74-0.03,17.48,0.06,26.21c0.06,5.64,1.34,6.57,6.82,5.62c0.91-0.16,2.83-1.78,2.72,0.63c-0.09,2.03,1.91,5.17-1.51,6.05
		c-3.35,0.86-6.89,1.2-10.41,0.55c-4.75-0.87-6.65-2.59-6.86-7.42c-0.27-6.23-0.07-12.48-0.07-18.72
		C140.05,139.97,140.01,139.97,139.96,139.97z"/>
	<path class="st1" d="M176.43,121.28c3.98-6.27,8.94-9.1,15.28-9.77c2.42-0.26,3.23,0.48,2.89,2.77c-0.05,0.37-0.06,0.76,0,1.12
		c0.64,3.72-0.38,5.35-4.7,5.57c-8.55,0.44-13.17,5.44-13.45,14.03c-0.29,9.11-0.24,18.23-0.12,27.34c0.04,2.7-0.52,4.03-3.46,3.56
		c-1.1-0.17-2.25-0.09-3.37-0.01c-1.52,0.1-2.24-0.33-2.24-2.05c0.05-16.48,0.04-32.96,0-49.44c0-1.58,0.45-2.38,2.12-2.18
		c0.12,0.01,0.25,0.01,0.37,0c6.43-0.32,6.42-0.32,6.51,6.06C176.28,118.89,176.33,119.51,176.43,121.28z"/>
	<path class="st2" d="M581.25,64.41c6.36,12.86,14.38,25.16,23.4,36.8c2.77,3.57,5.92,6.79,9.69,9.31
		c6.82,4.54,12.52,2.81,15.59-4.73c2.48-6.09,3.11-12.58,3.67-19.03c0.22-2.6,0.87-3.24,3.34-2.02c4.26,2.1,8.52,4.19,12.49,6.8
		c3.81,2.5,4.01,4.32,0.46,7.23c-7.35,6.02-15.31,11.2-23.4,16.17c-3.79,2.33-7.3,6.68-11.44,6.43c-3.92-0.24-7.67-3.81-11.45-6
		c-12.53-7.26-25.08-14.48-37.52-21.88c-8.47-5.04-8.54-5.99-1.49-13.01C570.07,75.02,575.72,69.74,581.25,64.41z"/>
	<path class="st2" d="M588.22,63.56c9.98,4.26,19.56,8.37,29.15,12.43c1.21,0.51,1.61,1.31,1.67,2.57c0.36,7.2,0.93,14.4,1.12,21.61
		c0.13,4.83-2.27,5.98-6.42,3.32c-2.88-1.83-5.01-4.46-7.11-7.09c-6.62-8.3-12.32-17.18-16.82-26.8
		C589.04,67.94,588.23,66.23,588.22,63.56z"/>
	<path class="st2" d="M588.61,55.57c7.38-7.74,13.92-15.24,21.41-21.81c2.64-2.31,4.27-1.78,4.98,1.53
		c1.69,7.94,1.84,16.07,2.74,24.11c0.24,2.12-1.36,1.4-2.26,1.18C606.92,58.41,598.23,56.86,588.61,55.57z"/>
	<path class="st2" d="M609.29,151.56c6.34-5.38,13.33-9.72,20.08-14.4c0.76-0.52,1.5-0.93,2.39-0.34
		c5.54,3.71,11.57,6.75,16.34,11.8C644.52,149.99,612.15,152.4,609.29,151.56z"/>
	<path class="st3" d="M41.21,136.4c3.61-9.79,7.05-19.13,10.88-29.52c3.49,9.97,6.59,18.83,9.7,27.69c0.39,1.1,0.49,1.87-1.13,1.86
		C54.36,136.37,48.04,136.4,41.21,136.4z"/>
	<path class="st2" d="M230.74,144.01c-0.55,10.83-8,16.79-18.42,15.02c-3.97-0.67-6.68-3.13-7.23-6.53
		c-0.57-3.55,1.02-6.66,4.7-8.49c6.02-2.98,12.64-3.82,19.17-4.42C232.69,139.24,229.71,142.84,230.74,144.01z"/>
	<path class="st2" d="M543.23,143.66c-0.28,10.97-7.88,17.19-18.44,15.37c-4.01-0.69-6.74-3.15-7.18-6.56
		c-0.51-3.95,1.16-6.79,4.69-8.49c6.06-2.9,12.66-3.75,19.2-4.41C544.95,139.22,542.35,142.56,543.23,143.66z"/>
	<path class="st3" d="M326.82,133.57c-3.86,0-7.73,0.01-11.59,0c-1.1,0-2.16,0.21-2.14-1.63c0.1-10.05,9.44-17.14,18.78-14.17
		c5.47,1.74,9.98,8.62,9.59,14.29c-0.13,1.87-1.25,1.5-2.29,1.51C335.05,133.59,330.94,133.57,326.82,133.57z"/>
	<path class="st3" d="M430.04,133.57c-3.99,0-7.98,0.03-11.97-0.02c-0.98-0.01-2.23,0.49-2.35-1.43
		c-0.56-8.81,8.33-16.52,17.15-14.77c6.38,1.27,11.35,7.8,11.23,14.52c-0.03,1.72-0.91,1.72-2.11,1.71
		C438.02,133.56,434.03,133.57,430.04,133.57z"/>
</g>
</svg>
