<?xml version="1.0" encoding="utf-8"?>
<!-- Generator: Adobe Illustrator 25.0.0, SVG Export Plug-In . SVG Version: 6.00 Build 0)  -->
<svg version="1.1" id="Capa_1" xmlns="http://www.w3.org/2000/svg" xmlns:xlink="http://www.w3.org/1999/xlink" x="0px" y="0px"
	 viewBox="0 0 685.7 226.21" style="enable-background:new 0 0 685.7 226.21;" xml:space="preserve">
<style type="text/css">
	.st0{fill:#EAC108;}
	.st1{fill:#2D2D6E;}
	.st2{fill:#FFFFFF;}
	.st3{fill:#FEFEFF;}
	.st4{fill:#F1CCBD;}
	.st5{fill:#B5B2B1;}
	.st6{fill:#B3B0AF;}
	.st7{fill:#13130E;}
	.st8{fill:#C61E1D;}
	.st9{fill:#243F93;}
	.st10{fill:#4489C9;}
	.st11{fill:#E11C37;}
	.st12{fill:#ABDDF4;}
	.st13{fill:#E41D3D;}
	.st14{fill:#DF1B31;}
	.st15{fill:#E11D35;}
	.st16{fill:#E31D3D;}
	.st17{fill:#46BEEE;}
	.st18{fill:#2DAEE5;}
	.st19{fill:#56C1EE;}
	.st20{fill:#77CBF0;}
	.st21{fill:#60C5F0;}
	.st22{fill:#3EBBEC;}
	.st23{fill:#28ACE3;}
	.st24{fill:#92D3F2;}
	.st25{fill:#99D5F2;}
	.st26{fill:#2AABE3;}
	.st27{fill:#3BB9EB;}
	.st28{fill:#65C7F2;}
	.st29{fill:#70C9F1;}
	.st30{fill:#36B7EA;}
	.st31{fill:#32B5E9;}
	.st32{fill:#87D0F1;}
	.st33{fill:#A6DAF5;}
	.st34{fill:#2FB2E7;}
	.st35{fill:#2BB3E9;}
	.st36{fill:#33B0E6;}
	.st37{fill:#80CEF1;}
	.st38{fill:#83CEF0;}
	.st39{fill:#A2D9F4;}
	.st40{fill:#51BFEE;}
	.st41{fill:#2CB1E7;}
	.st42{fill:#34B3E8;}
	.st43{fill:#46BCED;}
	.st44{fill:#E21C3B;}
	.st45{fill:#E4203E;}
	.st46{fill:#E11F3A;}
	.st47{fill:#F5FAF6;}
	.st48{fill:#DF1D32;}
	.st49{fill:#E22E4B;}
	.st50{fill:#FBF9F9;}
	.st51{fill:#FAF8F9;}
	.st52{fill:#E11D33;}
	.st53{fill:#FBFAFA;}
	.st54{fill:#E21F33;}
	.st55{fill:#E41C3E;}
	.st56{fill:#E01E33;}
	.st57{fill:#FDFDFD;}
	.st58{fill:#E21F3B;}
	.st59{fill:#FDFCFB;}
</style>
<g>
	<path class="st11" d="M337.79,165.6c-0.01-2.27-0.03-4.54-0.04-6.81c0-0.88,0-1.76,0-2.81c-0.65,0.72-1.18,1.32-1.73,1.9
		c-4.53,4.8-9.96,8.04-16.55,9c-9.65,1.41-18.11-1.09-25.13-8c-5.02-4.94-8.05-10.87-8.85-17.88c-0.8-7.03,0.27-13.72,4.13-19.76
		c4.11-6.43,9.67-11.13,17.14-13.17c7.35-2.01,14.54-1.52,21.36,2.13c3.71,1.98,6.68,4.84,9.19,8.18c0.09,0.11,0.17,0.23,0.26,0.34
		c0.02,0.03,0.07,0.04,0.11,0.06c0.15-0.15,0.07-0.34,0.07-0.51c0-10.46,0-20.92,0.01-31.37c0-0.2,0.03-0.4,0.04-0.6
		c0.04,0,0.08,0,0.12,0c0.26,0.32,0.17,0.7,0.17,1.05c0,9.93,0,19.86,0.01,29.78c0,0.24-0.06,0.48,0.05,0.71
		c-0.06-0.19-0.03-0.37-0.03-0.55c0-10,0-20,0-30c0-0.34-0.08-0.69,0.17-0.99c1.99,0,3.98,0,5.97,0c0.25,0.27,0.18,0.61,0.18,0.93
		c0,5.73,0,11.46,0,17.2c0,19.89,0,39.78,0,59.67c0,0.34,0.09,0.69-0.15,1c-0.03,0.02-0.07,0.06-0.1,0.06
		c-1.96,0-3.91,0.06-5.87-0.03c-0.08-0.08-0.08-0.18-0.08-0.28c0-2.4,0-4.8,0-7.2c0,2.26,0,4.52,0,6.78c0,0.22-0.04,0.44,0.04,0.66
		c0.17,0.16,0.39,0.08,0.58,0.08c1.74,0.01,3.47,0,5.21,0.01c0.19-0.15,0.36,0.09,0.55,0.03c0.05,0.04,0.09,0.08,0.11,0.14
		c-0.09,0.54-0.15,0.56-0.79,0.2c-1.82-0.01-3.64-0.08-5.46,0.04C338.24,165.45,338.02,165.91,337.79,165.6z"/>
	<path class="st12" d="M115.25,192.36c0.21-0.3,0.14-0.7,0.35-1.01c0.46-0.7,1.11-1.05,1.93-1.05c4.39,0,8.79,0,13.18,0.01
		c-0.09,0.35-0.4,0.28-0.64,0.29c-0.65,0.03-1.29,0-1.94,0.01c-0.7,0.01-0.74,0.05-0.75,0.77c-0.01,1.25,0,2.5-0.01,3.75
		c0,0.3,0.04,0.61-0.19,0.86c-3.22,0-6.45,0.02-9.67,0.01c-1.1,0-1.92-0.75-2.15-1.85c-0.02-0.07-0.07-0.14-0.11-0.21
		C115.25,193.42,115.25,192.89,115.25,192.36z"/>
	<path class="st13" d="M344.49,165.24c-0.24,0.29-0.1-0.21-0.24-0.12c0-26.27,0-52.54,0-78.81c0.12,0,0.24,0,0.37,0
		c0.15,0.16,0.17,0.36,0.17,0.57c0,0.16,0,0.32,0,0.49c0,25.57,0,51.14-0.01,76.71C344.78,164.47,344.95,164.94,344.49,165.24z"/>
	<path class="st14" d="M344.49,165.24c0.17-0.28,0.12-0.59,0.12-0.89c0-26.01,0-52.03,0-78.04c0.08,0,0.16,0,0.24,0
		c0.11,0.21,0.06,0.44,0.06,0.66c0,25.83,0,51.66-0.01,77.49c0,0.27,0.23,0.68-0.29,0.78C344.57,165.24,344.53,165.24,344.49,165.24
		z"/>
	<path class="st13" d="M344.61,165.24c0.19-0.09,0.25-0.25,0.24-0.45c0-0.16,0-0.32,0-0.49c0-26,0-52,0-77.99c0.04,0,0.08,0,0.12,0
		c0.02,0.26,0.04,0.52,0.04,0.78c0,26.02,0,52.04,0.01,78.07c0,0.49-0.1,0.66-0.63,0.66c-2.03-0.03-4.06-0.01-6.09-0.02
		c-0.18,0-0.46,0.16-0.53-0.19c0.16,0.2,0.33-0.33,0.49,0c0.21-0.17,0.46-0.12,0.7-0.12c1.48,0,2.96,0,4.44,0
		c0.24,0,0.49,0.05,0.7-0.12c0.16,0.06,0.09,0.39,0.34,0.33C344.7,165.63,344.59,165.4,344.61,165.24z"/>
	<path class="st15" d="M338.16,118.54c-0.37-0.08-0.24-0.38-0.24-0.59c-0.01-2.69-0.01-5.38-0.01-8.08c0-7.85,0-15.71,0-23.56
		c0.08,0,0.16,0,0.24,0c0.11,0.21,0.06,0.44,0.06,0.66c0,10.31,0,20.61,0,30.92C338.22,118.1,338.27,118.33,338.16,118.54z"/>
	<path class="st16" d="M338.16,118.54c0-10.74,0-21.49,0-32.23c0.04,0,0.08,0,0.12,0c0,10.49,0,20.98,0,31.48
		C338.28,118.04,338.38,118.32,338.16,118.54z"/>
	<path class="st11" d="M165.28,114.5c0.04-0.04,0.07-0.07,0.11-0.11c0.14-0.03,0.23-0.11,0.26-0.25c3.36-3.55,7.42-5.87,12.23-6.78
		c4.44-0.83,8.78-0.47,12.85,1.61c5.18,2.65,8.16,7.01,9.5,12.57c0.94,3.9,1.19,7.89,1.2,11.88c0.03,10.56,0.01,21.12,0.03,31.68
		c0,0.54-0.11,0.72-0.69,0.71c-2.05-0.04-4.1-0.04-6.15,0c-0.57,0.01-0.74-0.1-0.74-0.71c0.02-10.88,0.02-21.77-0.01-32.65
		c-0.01-2.94-0.14-5.88-0.77-8.76c-1.06-4.92-4.79-8.45-9.75-9.3c-7.48-1.28-15.04,2.69-18.4,9.61c-1.4,2.87-1.98,5.93-2.33,9.06
		c-0.41,3.67-0.49,7.36-0.49,11.05c0,6.99-0.01,13.98,0.01,20.98c0,0.59-0.14,0.75-0.73,0.73c-2.03-0.04-4.06-0.03-6.09,0
		c-0.49,0.01-0.6-0.14-0.6-0.62c0.01-9.38,0.01-18.77,0.01-28.15c0-3.38-0.04-6.77-0.39-10.14c-0.29-2.7-0.79-5.34-2.44-7.6
		c-2.4-3.28-5.68-4.9-9.69-5.14c-7.41-0.45-14.5,4.47-17.21,11.7c-1.01,2.68-1.42,5.48-1.7,8.3c-0.28,2.89-0.29,5.79-0.29,8.68
		c0,7.42-0.01,14.84,0.01,22.25c0,0.56-0.14,0.71-0.7,0.7c-2.07-0.03-4.14-0.01-6.21-0.01c-0.32,0-0.59,0-0.48-0.45
		c0.1-0.23,0.05-0.48,0.05-0.72c0-18.45,0-36.89,0.01-55.34c0-0.24-0.1-0.52,0.24-0.73c0,18.75,0,37.51,0,56.22
		c0.04-0.08,0-0.22,0-0.36c0-18.36,0-36.73,0-55.09c0-0.83,0.01-0.83,0.85-0.84c1.76-0.02,3.53,0.06,5.29-0.04
		c0.93-0.05,0.93-0.05,0.93,0.89c0,2.69,0,5.39,0,8.08c0,0.22,0,0.44,0,0.66c0.04,0.02,0.07,0.04,0.11,0.06
		c0.17-0.23,0.35-0.46,0.52-0.69c1.88-2.53,3.95-4.9,6.6-6.66c7.04-4.71,16.17-5.24,23.23-0.68c2.89,1.87,4.85,4.49,6.21,7.59
		c0.41,0.94,0.78,1.9,1.2,2.93c1.21-2.06,2.45-4.04,4.07-5.75C165.08,114.8,165.22,114.69,165.28,114.5z"/>
	<path class="st11" d="M582.44,118.83c0.16-0.22,0.09-0.43,0.09-0.62c0-3.06,0.02-6.12-0.01-9.18c0-0.49,0.14-0.6,0.61-0.59
		c1.99,0.02,3.98,0.03,5.97,0c0.57-0.01,0.73,0.11,0.73,0.71c-0.02,18.51-0.02,37.01-0.02,55.52c0,1.13,0,1.13-1.14,1.13
		c-1.85,0-3.69-0.02-5.54,0.01c-0.49,0.01-0.61-0.14-0.61-0.61c0.02-2.82,0.01-5.63,0.01-8.45c0-0.19,0.05-0.4-0.08-0.65
		c-0.49,0.54-0.95,1.06-1.42,1.57c-3.59,3.84-7.78,6.76-12.85,8.32c-3.87,1.19-7.83,1.58-11.84,1.1
		c-11.58-1.39-19.33-7.91-24.04-18.28c-1.8-3.97-2.33-8.24-2.24-12.58c0.12-5.63,1.56-10.9,4.75-15.59
		c4.35-6.42,10.08-11.05,17.75-12.82c8.25-1.9,16.08-0.88,23.13,4.14c2.53,1.8,4.64,4.04,6.5,6.52
		C582.26,118.6,582.34,118.7,582.44,118.83z"/>
	<path class="st11" d="M366.53,137.77c0.15,3.26,0.59,6.46,1.92,9.46c3.14,7.05,8.34,11.7,16.08,12.92
		c7.31,1.15,13.93-0.71,19.58-5.57c2.34-2.01,3.99-4.62,5.59-7.24c0.28-0.45,0.47-0.56,0.97-0.28c1.7,0.94,3.43,1.83,5.16,2.72
		c0.33,0.17,0.46,0.29,0.26,0.68c-3.18,6.14-7.6,11.06-13.95,14.06c-3.49,1.65-7.18,2.47-11.02,2.68c-4.02,0.23-7.98-0.09-11.86-1.2
		c-5.33-1.53-9.68-4.52-13.15-8.84c-3.64-4.54-6.08-9.62-6.84-15.4c-1.18-9.01,0.94-17.16,6.68-24.29
		c3.95-4.91,8.91-8.32,15.11-9.66c7.85-1.7,15.51-1.13,22.53,3.03c7.88,4.66,12.54,11.65,14.08,20.7c0.3,1.78,0.52,3.57,0.47,5.37
		c-0.23,0.11-0.48,0.05-0.72,0.05c-16.41,0-32.83,0-49.24,0c-0.24,0-0.49-0.02-0.62,0c0.1-0.03,0.3,0,0.5,0c16.47,0,32.95,0,49.42,0
		c0.22,0,0.45-0.05,0.66,0.05c0,0.04,0,0.08,0,0.12c-0.32,0.26-0.7,0.17-1.05,0.17c-9.11,0-18.22,0-27.33,0
		c-7.41,0-14.81,0.01-22.22-0.02C367.09,137.3,366.9,137.68,366.53,137.77z"/>
	<path class="st11" d="M244.12,167.26c-5.54-0.01-10.83-1.08-15.55-4.08c-7.23-4.59-11.94-11.08-13.71-19.48
		c-1.49-7.12-0.77-14.07,2.69-20.54c4-7.48,9.9-12.89,18.26-15.08c8.29-2.18,16.4-1.53,23.8,3.08c7.86,4.9,12.8,12,14.07,21.22
		c1.77,12.95-2.89,23.25-13.71,30.62c-4.01,2.73-8.61,3.88-13.43,4.19c-0.4,0.03-0.81,0.05-1.22,0.06
		C244.93,167.27,244.52,167.26,244.12,167.26z"/>
	<path class="st11" d="M474.13,118.68c1.13-1.42,2.19-2.69,3.35-3.87c3.75-3.77,8.12-6.44,13.41-7.39
		c6.38-1.15,12.36-0.24,17.61,3.85c4.01,3.14,6.3,7.32,7.28,12.26c0.89,4.48,1.03,9.01,1.03,13.55c0,9.34-0.01,18.69,0.01,28.03
		c0,0.56-0.15,0.71-0.71,0.7c-2.01-0.03-4.02-0.03-6.02,0c-0.54,0.01-0.67-0.13-0.67-0.67c0.01-9.55,0.03-19.09-0.01-28.64
		c-0.01-3.32-0.06-6.65-0.56-9.94c-0.36-2.36-1.07-4.61-2.32-6.66c-2.07-3.39-5.17-5.22-9.02-5.87
		c-12.31-2.07-21.37,7.77-22.65,16.82c-0.53,3.78-0.68,7.58-0.7,11.39c-0.03,7.62-0.02,15.24-0.01,22.86c0,0.57-0.16,0.71-0.71,0.7
		c-2.01-0.03-4.02-0.04-6.02,0c-0.58,0.01-0.7-0.18-0.69-0.71c0.01-14.73,0.01-29.47,0.01-44.2c0-3.95,0.01-7.9-0.01-11.86
		c0-0.46,0.1-0.62,0.59-0.61c2.09,0.03,4.18,0.03,6.27,0c0.48-0.01,0.56,0.15,0.56,0.59c-0.02,2.96-0.01,5.92-0.01,8.88
		C474.13,118.11,474.13,118.32,474.13,118.68z"/>
	<path class="st11" d="M436.74,116.72c0.74-0.96,1.35-1.79,2-2.58c2.22-2.69,4.77-4.97,8.08-6.26c3.8-1.48,7.46-1.11,11.01,0.83
		c0.28,0.15,0.33,0.28,0.16,0.56c-1.16,1.85-2.32,3.71-3.45,5.58c-0.19,0.31-0.37,0.22-0.59,0.13c-1.17-0.47-2.36-0.85-3.65-0.83
		c-2.75,0.05-4.99,1.26-6.98,3.03c-2.36,2.1-3.69,4.83-4.71,7.75c-1.11,3.15-1.36,6.44-1.58,9.74c-0.3,4.47-0.29,8.95-0.29,13.43
		c0,5.7-0.01,11.39,0.01,17.09c0,0.47-0.11,0.63-0.61,0.62c-2.13-0.03-4.26-0.02-6.39,0c-0.47,0.01-0.61-0.15-0.57-0.59
		c0.03-0.26,0.01-0.53,0.01-0.79c0-18.42,0-36.85-0.01-55.27c0-0.59,0.14-0.74,0.73-0.73c2.09,0.04,4.18,0.03,6.27,0
		c0.46-0.01,0.58,0.13,0.58,0.58c-0.02,2.33-0.01,4.66-0.01,6.99C436.74,116.18,436.74,116.36,436.74,116.72z"/>
	<path class="st17" d="M385.03,195.99c-1.38,0.01-2.76,0.02-4.13,0.02c-6.93,0-13.87,0-20.8,0c-1.89,0-2.7-0.8-2.72-2.68
		c0-0.34-0.01-0.69,0.03-1.03c0.13-1.17,1-2,2.14-2c8.43-0.01,16.87,0,25.3,0c0.06,0,0.12,0.01,0.18,0.02
		c0.21,0.21,0.19,0.48,0.19,0.74c0.01,1.4,0.01,2.8,0,4.19C385.23,195.51,385.24,195.78,385.03,195.99z"/>
	<path class="st18" d="M526.26,190.31c2.01-0.01,4.02-0.02,6.02-0.02c5.19,0,10.38,0,15.58,0c1.28,0,2.02,0.54,2.3,1.79
		c0.18,0.83,0.19,1.69-0.11,2.51c-0.33,0.91-1.02,1.39-1.94,1.39c-7.28,0.02-14.56,0-21.84-0.01c-0.21-0.21-0.19-0.48-0.19-0.74
		c-0.01-1.4-0.01-2.8,0-4.19C526.06,190.79,526.05,190.52,526.26,190.31z"/>
	<path class="st19" d="M339.75,195.99c-0.89,0.01-1.78,0.02-2.68,0.02c-6.06,0-12.13,0-18.19,0c-1.71,0-2.59-0.85-2.63-2.56
		c-0.02-0.65,0-1.3,0.28-1.9c0.37-0.81,1.02-1.25,1.91-1.25c9.17-0.01,18.33-0.01,27.5,0c0.47,0,0.92,0.11,1.27,0.47
		c-0.32,0.3-0.68,0.2-1.02,0.06c-0.28-0.12-0.56-0.21-0.87-0.21c-1.56,0-3.12-0.01-4.67,0c-0.64,0-0.69,0.06-0.7,0.69
		c-0.01,1.27,0,2.55-0.01,3.82C339.93,195.43,339.98,195.74,339.75,195.99z"/>
	<path class="st20" d="M254.16,195.99c-5.21,0-10.42,0.02-15.63,0c-1.35,0-2.12-0.95-2.25-2.59c-0.05-0.66,0.08-1.29,0.33-1.89
		c0.34-0.79,0.97-1.21,1.8-1.22c4.64-0.01,9.28,0,13.93,0.01c0.4,0.1,0.8,0.02,1.2,0.04c0.47,0.02,0.78,0.24,0.79,0.73
		c0.04,1.49,0.03,2.98,0,4.47C254.33,195.72,254.29,195.87,254.16,195.99z"/>
	<path class="st21" d="M284.6,190.31c3.61-0.01,7.22-0.02,10.83-0.02c3.45,0,6.9,0,10.34,0c1.37,0,2.21,0.82,2.33,2.19
		c0.06,0.69,0.07,1.37-0.15,2.03c-0.32,0.94-1.02,1.49-2,1.49c-4.81,0.01-9.61,0-14.42-0.01c-0.24-0.25-0.19-0.56-0.19-0.86
		c-0.01-1.25,0-2.5-0.01-3.75c0-0.71-0.05-0.76-0.75-0.76c-1.72-0.01-3.43,0.01-5.15-0.01C285.14,190.6,284.77,190.71,284.6,190.31z
		"/>
	<path class="st22" d="M414.25,195.99c-4.9,0.01-9.8,0.02-14.7,0.01c-1.17,0-1.89-0.68-2.12-1.86c-0.16-0.83-0.17-1.65,0.12-2.45
		c0.3-0.84,0.99-1.38,1.87-1.39c2.71-0.01,5.43,0.01,8.14,0.01c0.8,0.2,1.61,0.12,2.42,0.08c1.32-0.06,2.63,0,3.94-0.04
		c0.48-0.01,0.51,0.32,0.51,0.65c0.03,1.17,0.01,2.35,0.01,3.52c0,0.28,0.01,0.57-0.01,0.85
		C414.43,195.59,414.43,195.82,414.25,195.99z"/>
	<path class="st23" d="M574.71,195.99c-4.72,0-9.44,0.02-14.17,0.01c-1.1,0-1.96-0.78-2.11-1.89c-0.11-0.78-0.15-1.58,0.11-2.35
		c0.29-0.87,1.01-1.46,1.89-1.46c4.52-0.01,9.04,0.01,13.56,0.01c0.91,0.11,0.92,0.11,0.92,1.07c0,1.25,0.01,2.5,0,3.75
		C574.9,195.43,574.95,195.74,574.71,195.99z"/>
	<path class="st24" d="M173.68,190.31c3.73-0.01,7.46-0.02,11.19-0.01c1.02,0,1.77,0.53,2.03,1.5c0.28,1.03,0.37,2.07-0.16,3.07
		c-0.38,0.72-1,1.13-1.81,1.13c-4.72,0.01-9.45,0-14.17-0.01c-0.19-0.19-0.19-0.44-0.19-0.68c-0.01-1.39-0.01-2.79,0-4.18
		c0.01-0.73,0.07-0.76,0.81-0.78C172.15,190.34,172.92,190.42,173.68,190.31z"/>
	<path class="st25" d="M173.68,190.31c-0.73,0.25-1.47,0.09-2.21,0.09c-0.53,0-0.74,0.11-0.72,0.7c0.04,1.63,0.02,3.26,0.02,4.9
		c-4.44,0-8.87,0.02-13.31,0.01c-1.15,0-1.97-0.83-2.17-1.98c-0.15-0.86-0.12-1.69,0.24-2.48c0.36-0.8,1.01-1.23,1.86-1.23
		C162.82,190.29,168.25,190.3,173.68,190.31z"/>
	<path class="st26" d="M574.71,195.99c0-1.55-0.02-3.1,0.01-4.64c0.01-0.58-0.04-1.01-0.74-1.03c4.38-0.01,8.76-0.01,13.14-0.02
		c0.34,0,0.69-0.01,1.03,0c0.84,0.04,1.58,0.56,1.84,1.35c0.3,0.95,0.3,1.92,0.04,2.87c-0.25,0.9-1.03,1.48-1.94,1.48
		C583.63,196.01,579.17,196,574.71,195.99z"/>
	<path class="st27" d="M414.25,195.99c0-1.56,0-3.12,0-4.68c0-0.98,0.11-0.86-0.86-0.9c-1.68-0.07-3.36,0.13-5.03,0.13
		c-0.29,0-0.57,0.01-0.79-0.23c3.38-0.01,6.77-0.02,10.15-0.02c2.98,0,5.96,0,8.94,0c1.58,0,2.41,0.74,2.56,2.3
		c0.06,0.58,0.03,1.17-0.13,1.75c-0.26,0.98-1.03,1.66-2.06,1.66C422.76,196.01,418.51,196,414.25,195.99z"/>
	<path class="st28" d="M284.6,190.31c0.19,0.17,0.42,0.1,0.64,0.1c1.9,0.01,3.8,0.02,5.7-0.01c0.49-0.01,0.61,0.16,0.61,0.62
		c-0.02,1.65-0.01,3.31-0.01,4.96c-4.33,0-8.67,0.03-13,0c-1.3-0.01-2.16-0.9-2.22-2.19c-0.03-0.62-0.08-1.25,0.1-1.87
		c0.3-1.06,1.02-1.65,2.11-1.65C280.55,190.29,282.58,190.31,284.6,190.31z"/>
	<path class="st29" d="M254.16,195.99c0-1.56,0-3.11,0-4.67c0-0.74-0.17-0.89-0.94-0.91c-0.29-0.01-0.61,0.1-0.88-0.1
		c4.58-0.01,9.16-0.02,13.73-0.01c0.89,0,1.57,0.54,1.88,1.38c0.33,0.91,0.3,1.84,0.06,2.74c-0.26,0.97-1.03,1.57-2.06,1.57
		C262.02,196.01,258.09,196,254.16,195.99z"/>
	<path class="st30" d="M451.26,195.99c-3.91,0.01-7.82,0.02-11.73,0.01c-1.03,0-1.76-0.59-2.06-1.58c-0.29-0.96-0.3-1.91,0.11-2.84
		c0.34-0.8,0.96-1.25,1.83-1.27c1.36-0.03,2.72,0,4.07,0.01c1.45,0.1,2.9,0.01,4.36,0.04c1.15,0.02,2.3-0.06,3.45,0.04
		c0.18,0.2,0.17,0.45,0.17,0.69c0.01,1.41,0.01,2.82,0,4.23C451.46,195.55,451.46,195.8,451.26,195.99z"/>
	<path class="st31" d="M451.26,195.99c0-1.86,0-3.72,0-5.57c0.17-0.1,0.36-0.06,0.53-0.06c4.18,0,8.35,0,12.53,0
		c0.68,0,0.76,0.05,0.77,0.7c0.02,1.44,0.02,2.88,0,4.31c0,0.22-0.02,0.45-0.19,0.62C460.35,195.99,455.81,195.99,451.26,195.99z"/>
	<path class="st32" d="M207.77,195.99c-3.45,0-6.9,0.03-10.35,0c-1.27-0.01-2.15-0.94-2.19-2.22c-0.02-0.58-0.07-1.17,0.08-1.75
		c0.29-1.11,0.97-1.72,2.11-1.73c5.36-0.01,10.71,0,16.07,0.01c0.03,0.09,0,0.15-0.08,0.19c-0.27,0.13-0.55,0.11-0.84,0.11
		c-1.18,0-2.35,0-3.53,0c-1.08,0-1.08,0-1.09,1.11c0,1.15,0,2.31,0,3.46C207.96,195.47,207.99,195.76,207.77,195.99z"/>
	<path class="st33" d="M127.18,196c0-1.57,0-3.15,0-4.72c0-0.86,0-0.86,0.83-0.86c0.71,0,1.41,0,2.12,0c0.19,0,0.41,0.07,0.57-0.11
		c1.34,0,2.69,0,4.03,0c1.05,0.12,2.1,0.05,3.15,0.04c0.52-0.01,0.69,0.2,0.69,0.66c0.01,1.46,0.01,2.91,0,4.37
		c0,0.22-0.02,0.45-0.19,0.62C134.65,196,130.91,196,127.18,196z"/>
	<path class="st34" d="M499.96,195.99c-3.57,0-7.14,0-10.71,0c-0.24-0.25-0.19-0.56-0.19-0.86c-0.01-1.27,0-2.54-0.01-3.82
		c0-0.64-0.06-0.69-0.69-0.7c-2.32-0.01-4.65,0-6.97-0.01c-0.31,0-0.7,0.13-0.89-0.29c5.19-0.01,10.39-0.01,15.58-0.02
		c1.3,0,2.6,0.01,3.89,0.02c0.19,0.19,0.19,0.44,0.19,0.68c0.01,1.44,0.01,2.88,0,4.31C500.15,195.55,500.15,195.8,499.96,195.99z"
		/>
	<path class="st35" d="M480.49,190.31c0.19,0.18,0.42,0.1,0.64,0.1c2.51,0.01,5.01,0.02,7.52-0.01c0.48,0,0.62,0.14,0.61,0.62
		c-0.03,1.66-0.01,3.31-0.01,4.97c-2.87,0.01-5.75,0.03-8.62,0.01c-1.08-0.01-1.83-0.64-2.09-1.68c-0.21-0.84-0.19-1.68,0.04-2.51
		C478.84,190.89,479.46,190.42,480.49,190.31z"/>
	<path class="st36" d="M499.96,195.99c0-1.89,0-3.78,0-5.68c2.75-0.01,5.51-0.03,8.26-0.01c0.83,0.01,1.47,0.46,1.79,1.24
		c0.41,0.99,0.42,2.01,0.07,3.02c-0.32,0.93-1.03,1.42-1.98,1.43C505.39,196.02,502.67,196,499.96,195.99z"/>
	<path class="st37" d="M213.5,190.42c0-0.04,0-0.07,0-0.11c3.79-0.01,7.59-0.02,11.38-0.01c1,0,1.69,0.53,2,1.47
		c0.3,0.93,0.29,1.88-0.02,2.8c-0.29,0.89-1.04,1.43-1.98,1.43c-2.54,0.01-5.07,0-7.61-0.01c-0.23-0.25-0.19-0.57-0.19-0.86
		c-0.01-1.21,0.01-2.43-0.01-3.64c-0.01-0.77-0.11-0.87-0.89-0.87c-0.65-0.01-1.3,0.01-1.95-0.01
		C213.98,190.6,213.71,190.63,213.5,190.42z"/>
	<path class="st38" d="M213.5,190.42c1.01,0,2.02,0.04,3.03-0.01c0.65-0.03,0.75,0.32,0.75,0.81c0,1.59,0,3.19,0,4.78
		c-3.17,0-6.33,0-9.5,0c0-1.66,0.02-3.32-0.01-4.98c-0.01-0.5,0.16-0.61,0.63-0.61C210.09,190.43,211.79,190.42,213.5,190.42z"/>
	<path class="st39" d="M138.38,196c0-1.57,0-3.15,0-4.72c0-0.86,0-0.86-0.83-0.86c-0.75,0-1.49,0-2.24,0
		c-0.19,0-0.41,0.07-0.57-0.11c3.4,0,6.8-0.02,10.2-0.01c1.22,0,2.04,0.88,2.19,2.3c0.07,0.69,0,1.37-0.24,2.03
		c-0.27,0.77-1.08,1.37-1.89,1.38C142.79,196.01,140.59,196,138.38,196z"/>
	<path class="st40" d="M339.75,195.99c0-1.67,0.01-3.35-0.01-5.02c0-0.41,0.11-0.56,0.55-0.56c1.76,0.02,3.51,0.01,5.27,0.01
		c0.16,0,0.35-0.05,0.46,0.08c0.34,0.37,0.77,0.28,1.19,0.27c0.69,0.42,0.8,1.13,0.91,1.83c0.09,0.6,0.04,1.21-0.13,1.8
		c-0.29,0.98-1.02,1.6-2.04,1.61C343.88,196.02,341.81,196,339.75,195.99z"/>
	<path class="st41" d="M526.26,190.31c0,1.89,0,3.78,0,5.68c-1.9,0.01-3.81,0.04-5.71,0.01c-1.26-0.02-2.02-0.89-2.17-2.47
		c-0.09-0.96,0-1.9,0.75-2.65c0.38-0.38,0.83-0.58,1.36-0.58C522.41,190.29,524.33,190.31,526.26,190.31z"/>
	<path class="st42" d="M464.9,195.99c0-1.62-0.03-3.24,0.01-4.86c0.02-0.6-0.19-0.73-0.76-0.73c-4.3,0.02-8.6,0.01-12.89,0.01
		c-2.38,0-4.76,0-7.15,0c-0.21,0-0.45,0.07-0.64-0.1c3.93-0.01,7.86-0.02,11.8-0.02c3.81,0,7.62,0,11.43,0
		c1.55,0,2.41,0.84,2.45,2.39c0.02,0.61,0.06,1.21-0.15,1.8c-0.33,0.96-1.03,1.49-2.05,1.51C466.28,196.02,465.59,196,464.9,195.99z
		"/>
	<path class="st43" d="M385.03,195.99c0-1.89,0-3.78,0-5.68c0.69-0.01,1.38-0.03,2.07-0.02c0.91,0.02,1.63,0.55,1.92,1.42
		c0.31,0.9,0.3,1.83,0.04,2.74c-0.28,0.96-1.02,1.52-2.02,1.55C386.37,196.02,385.7,196,385.03,195.99z"/>
	<path class="st44" d="M366.53,137.77c-0.02-0.29,0.29-0.22,0.41-0.32c-0.01-0.26-0.32-0.1-0.34-0.3c17.18,0,34.37,0,51.55,0
		c0,0.04,0,0.08,0,0.13c-0.3,0.2-0.63,0.12-0.95,0.12c-16.2,0-32.41,0-48.61,0c16.2,0,32.41,0,48.61,0c0.32,0,0.65-0.08,0.95,0.12
		c0.01,0.12-0.05,0.19-0.17,0.19c-0.16,0.01-0.32,0-0.49,0c-16.75,0-33.49,0-50.24,0C367.02,137.71,366.78,137.75,366.53,137.77z"/>
	<path class="st45" d="M122.06,108.47c-0.19,0.17-0.43,0.1-0.64,0.1c-1.54,0.01-3.08,0-4.63,0c-0.77,0-0.82,0.05-0.82,0.84
		c0,18.28,0,36.56,0,54.84c0,0.24,0,0.48,0,0.72c-0.04,0-0.07,0-0.11,0c0-18.76,0-37.51,0-56.43c-0.19,0.39-0.13,0.63-0.13,0.86
		c0,18.4,0,36.8-0.01,55.21c0,0.25,0.1,0.53-0.11,0.76c-0.01-0.2-0.02-0.4-0.02-0.61c0-18.53,0-37.05-0.02-55.58
		c0-0.63,0.16-0.76,0.76-0.75C118.25,108.48,120.16,108.46,122.06,108.47z"/>
	<path class="st11" d="M418.16,137.51c-16.86,0-33.71,0-50.57,0c0-0.08,0-0.16,0-0.24c16.85,0,33.71,0,50.56,0
		C418.15,137.35,418.15,137.43,418.16,137.51z"/>
	<path class="st46" d="M595.12,111.83c0-1.98,1.58-3.57,3.53-3.57c1.99,0.01,3.57,1.58,3.57,3.54c0,2-1.6,3.59-3.6,3.57
		C596.69,115.36,595.12,113.78,595.12,111.83z"/>
	<path class="st47" d="M590.28,108.61c0,18.78,0,37.57,0,56.35c-0.02,0-0.04,0-0.06,0c0-18.79,0-37.58,0-56.37
		C590.24,108.59,590.26,108.6,590.28,108.61z"/>
	<path class="st48" d="M418.15,137.02c-16.87,0-33.74,0-50.62,0c0-0.04,0-0.08,0-0.12c16.87,0,33.74,0,50.61,0
		C418.15,136.95,418.15,136.98,418.15,137.02z"/>
	<path class="st47" d="M193.43,164.96c0-9.95,0-19.89,0-29.84c0.02,0,0.04,0,0.06,0c0,9.95,0,19.91,0,29.86
		C193.47,164.97,193.45,164.96,193.43,164.96z"/>
	<path class="st49" d="M165.28,114.5c0.04,0.27-0.06,0.41-0.34,0.4C165,114.72,165.14,114.61,165.28,114.5z"/>
	<path class="st49" d="M165.64,114.14c0.02,0.09,0.07,0.2,0.04,0.26c-0.08,0.14-0.19,0.03-0.29,0
		C165.47,114.31,165.55,114.22,165.64,114.14z"/>
	<path class="st2" d="M329.76,155.51c-2.28,1.85-4.86,3.14-7.65,3.98c-11.37,3.41-23.09-2.21-27.62-13.59
		c-3.13-7.85-2.06-15.31,2.62-22.29c0.08-0.12,0.18-0.21,0.27-0.32c0.06-0.05,0.14-0.09,0.21-0.11c0.38-0.11,0.38-0.11,0.47-0.54
		c0.06-0.34,0.35-0.48,0.57-0.67c0.38-0.34,0.63-0.86,1.27-0.87c0.17,0,0.32-0.08,0.09-0.37c-0.2-0.25,0.19-0.52,0.46-0.51
		c0.46,0.01,0.68-0.13,0.67-0.61c-0.01-0.21,0.14-0.44,0.33-0.46c0.47-0.06,0.61-0.42,0.8-0.74c2.42-1.85,5.14-3.08,8.09-3.72
		c10.87-2.35,20.69,2.47,25.54,12.03c1.66,3.28,2.31,6.8,2.34,10.45c0.04,4.7-1.03,9.11-3.59,13.1c-0.06,0.1-0.15,0.19-0.22,0.28
		c-0.11,0.1-0.25,0.14-0.39,0.14c-0.3,0-0.46,0.1-0.42,0.43c0.02,0.12-0.02,0.24-0.07,0.35c-0.24,0.59-0.31,0.62-0.81,0.29
		c-0.23,0.23,0.31,0.48-0.02,0.69c-0.22,0.15-0.48,0.22-0.74,0.25c-0.24,0.02-0.27,0.17-0.3,0.37c-0.13,0.77-0.88,1.06-1.29,1.62
		c-0.04,0.06,0.02,0.04-0.05,0.02C329.37,154.46,329.81,155.15,329.76,155.51z"/>
	<path class="st50" d="M329.76,155.51c-0.16-0.21-0.28-0.43-0.24-0.72c0.04-0.28,0.24-0.48,0.44-0.33c0.39,0.28,0.49-0.03,0.65-0.22
		c0.2-0.23,0.39-0.46,0.64-0.64c0.08-0.06,0.17-0.13,0.21-0.21c0.1-0.22,0.02-0.46,0.04-0.69c0.03-0.4,0.35-0.08,0.53-0.14
		c0.23-0.07,0.44-0.18,0.7-0.25c-0.23-0.23-0.46-0.52-0.16-0.75c0.36-0.28,0.41,0.17,0.55,0.38c0.21-0.37,0.4-0.72,0.35-1.12
		c-0.03-0.22,0.07-0.23,0.22-0.24c0.24-0.01,0.48-0.03,0.72-0.04C333.18,152.49,331.62,154.14,329.76,155.51z"/>
	<path class="st51" d="M302.24,118.4c0.03,0.49-0.11,0.83-0.69,0.84c-0.24,0.01-0.35,0.21-0.32,0.42c0.08,0.56-0.12,0.82-0.69,0.69
		c-0.23-0.06-0.32,0.13-0.47,0.21c-0.08,0.04-0.1,0.2-0.03,0.19c0.33-0.04,0.3,0.13,0.2,0.32c-0.1,0.19-0.27,0.33-0.5,0.27
		c-0.35-0.1-0.38,0.06-0.5,0.35c-0.11,0.25-0.47,0.42-0.75,0.57c-0.16,0.09-0.31,0.25-0.29,0.34c0.23,0.84-0.37,0.68-0.82,0.7
		C298.7,121.36,300.31,119.72,302.24,118.4z"/>
	<path class="st52" d="M344.13,165.36c-0.08,0.37-0.38,0.24-0.59,0.24c-1.75,0.01-3.5,0-5.25,0c0.08-0.37,0.38-0.23,0.59-0.24
		C340.63,165.36,342.38,165.36,344.13,165.36z"/>
	<path class="st13" d="M338.2,165.08c0-2.53,0-5.07,0-7.6c0.02,0,0.03,0,0.05,0c0,2.55,0,5.1,0,7.64
		C338.23,165.11,338.22,165.09,338.2,165.08z"/>
	<path class="st13" d="M338.28,165.12c1.99,0,3.98,0,5.97,0c-0.12,0.15-0.29,0.12-0.45,0.12c-1.69,0-3.38,0-5.07,0
		C338.57,165.24,338.4,165.27,338.28,165.12z"/>
	<path class="st52" d="M116.31,165.42c1.89,0,3.78,0,5.67,0c0,0.04,0,0.08,0,0.12c-1.89,0-3.78,0-5.67,0
		C116.31,165.5,116.31,165.46,116.31,165.42z"/>
	<path class="st52" d="M116.1,165.43c-0.03,0.04-0.06,0.11-0.1,0.12c-0.07,0.02-0.11-0.04-0.09-0.1c0.02-0.05,0.08-0.08,0.12-0.12
		C116.04,165.36,116.07,165.39,116.1,165.43z"/>
	<path class="st2" d="M541.8,150.54c-1.39-1.87-2.37-3.96-3.09-6.16c-3.36-10.19,0.81-21.53,9.98-27.11
		c3.85-2.34,8.06-3.32,12.55-3.16c4.13,0.14,7.98,1.2,11.41,3.53c5.72,3.88,9.2,9.2,10.12,16.09c0.64,4.78,0.19,9.44-1.87,13.84
		c-3.11,6.64-8.45,10.58-15.47,12.3c-4.83,1.18-9.58,0.72-14.15-1.32c-0.15-0.06-0.28-0.16-0.42-0.24c-0.11-0.2-0.55-0.22-0.3-0.61
		c0.07-0.11-0.05-0.03-0.08-0.03c-0.62-0.02-1.12-0.34-1.62-0.64c-0.26-0.15-0.31-0.34,0.1-0.47c-0.27-0.04-0.47-0.04-0.67-0.02
		c-0.44,0.06-0.72-0.11-0.74-0.57c-0.02-0.31-0.13-0.39-0.45-0.39c-0.62-0.01-0.81-0.27-0.71-0.85c-0.59,0.1-0.76-0.02-0.8-0.66
		c-0.02-0.3-0.07-0.43-0.42-0.41c-0.39,0.03-0.58-0.22-0.57-0.62c0.01-0.21,0.01-0.44-0.29-0.42c-0.62,0.02-0.7-0.36-0.63-0.84
		c-0.93-0.08-0.99-0.13-1.06-1.01C542.27,150.95,542.05,150.69,541.8,150.54z"/>
	<path class="st53" d="M541.8,150.54c0.27-0.12,0.51,0.4,0.84,0.02c0.06-0.07,0.19,0.31,0.16,0.47c-0.06,0.39,0.02,0.55,0.46,0.54
		c0.32-0.01,0.67,0.06,0.55,0.57c-0.06,0.27,0.16,0.35,0.39,0.32c0.48-0.07,0.62,0.19,0.56,0.58c-0.07,0.45,0.19,0.6,0.52,0.48
		c0.5-0.19,0.41,0.16,0.47,0.41c0.04,0.18-0.02,0.35,0.12,0.57c0.17,0.25,0.19,0.25,0.3,0.04c0.12-0.22,0.23-0.11,0.33-0.03
		c0.11,0.08,0.22,0.17,0.16,0.35c-0.12,0.35,0.1,0.7,0.41,0.6c0.62-0.21,0.62,0.16,0.62,0.57c0.01,0.31,0.18,0.48,0.46,0.39
		c0.35-0.11,0.67,0.06,1.01-0.04c0.07,0.36-0.22,0.32-0.41,0.4c0.43,0.43,1.11,0.35,1.47,0.85c0.09,0.13,0.18-0.18,0.34-0.17
		c0.09,0.01,0.2-0.1,0.27,0.02c0.03,0.04,0.03,0.16,0.01,0.17c-0.49,0.24,0.01,0.45,0.01,0.67c-2.04-0.87-3.84-2.12-5.48-3.59
		C544,153.49,542.75,152.14,541.8,150.54z"/>
	<path class="st54" d="M589.67,108.85c0,18.7,0,37.4,0,56.1c-0.02,0-0.04,0-0.06,0c0-18.71,0-37.42,0-56.13
		C589.63,108.84,589.65,108.84,589.67,108.85z"/>
	<path class="st52" d="M582.83,165.54c0.47-0.22,6.15-0.22,6.65,0C587.26,165.54,585.04,165.54,582.83,165.54z"/>
	<path class="st2" d="M388.7,131.31c-6.9,0-13.79,0-20.69,0c-0.7,0-0.71,0-0.5-0.67c1.07-3.49,2.51-6.81,4.95-9.58
		c3.28-3.72,7.42-5.98,12.33-6.73c6.37-0.97,12.2,0.43,17.44,4.18c3.61,2.58,5.78,6.17,7.13,10.31c0.2,0.61,0.33,1.25,0.55,1.86
		c0.18,0.5,0.1,0.65-0.46,0.65c-5.03-0.02-10.06-0.01-15.09-0.01C392.47,131.31,390.58,131.31,388.7,131.31z"/>
	<path class="st55" d="M409.22,131.9c-13.85,0-27.7,0-41.55,0c0-0.02,0-0.04,0-0.06c13.86,0,27.72,0,41.58,0
		C409.24,131.86,409.23,131.88,409.22,131.9z"/>
	<path class="st2" d="M221.65,137.36c0.34-9.8,4.88-16.92,13.66-21.35c8.61-3.35,16.5-2.24,23.49,3.92
		c4.09,3.6,6.71,8.12,7.46,13.54c1.23,8.96-1.37,16.58-8.55,22.29c-4.51,3.58-9.81,4.86-15.53,4.4c-5.56-0.45-10.34-2.61-14.18-6.67
		c-3.48-3.67-5.48-8.07-6.12-13.09C221.75,139.4,221.71,138.39,221.65,137.36z"/>
	<ellipse class="st56" cx="516.56" cy="150.61" rx="0.03" ry="20.87"/>
	<path class="st56" d="M509.68,136.09c0,9.62,0,19.24,0,28.86c-0.02,0-0.04,0-0.06,0c0-9.63,0-19.26,0-28.88
		C509.64,136.08,509.66,136.09,509.68,136.09z"/>
	<path class="st56" d="M516.54,165.4c-0.42,0.28-6.39,0.29-6.91,0C511.97,165.4,514.24,165.4,516.54,165.4z"/>
	<path class="st57" d="M598.69,114.89c-1.72,0-3.08-1.37-3.07-3.1c0.01-1.69,1.37-3.05,3.06-3.05c1.66,0,3.06,1.41,3.05,3.07
		C601.72,113.5,600.34,114.89,598.69,114.89z"/>
	<path class="st58" d="M600.47,113.76c-0.55,0.19-0.76,0-0.78-0.47c-0.01-0.18-0.02-0.36-0.03-0.55c-0.01-0.42-0.22-0.6-0.65-0.62
		c-1.17-0.06-1.17-0.07-1.17,1.1c0,0.1-0.01,0.2,0,0.3c0.02,0.24-0.1,0.31-0.33,0.31c-0.23,0-0.32-0.09-0.32-0.32
		c0.01-1.15,0.01-2.3,0.01-3.46c0-0.24,0.11-0.31,0.33-0.31c0.59,0.01,1.18-0.02,1.76,0.02c0.96,0.07,1.38,1.02,0.82,1.81
		c-0.05,0.08-0.16,0.22-0.16,0.22C600.6,112.34,600.08,113.15,600.47,113.76z"/>
	<path class="st59" d="M598.43,111.51c-0.13-0.06-0.46,0.18-0.55-0.1c-0.09-0.29-0.04-0.64-0.01-0.96c0.01-0.14,0.18-0.13,0.3-0.13
		c0.32,0.01,0.65,0.02,0.97,0.04c0.37,0.02,0.55,0.21,0.55,0.58c-0.01,0.37-0.21,0.55-0.57,0.57
		C598.92,111.52,598.72,111.51,598.43,111.51z"/>
</g>
</svg>
