<?xml version="1.0" encoding="utf-8"?>
<!-- Generator: Adobe Illustrator 25.0.0, SVG Export Plug-In . SVG Version: 6.00 Build 0)  -->
<svg version="1.1" id="Capa_1" xmlns="http://www.w3.org/2000/svg" xmlns:xlink="http://www.w3.org/1999/xlink" x="0px" y="0px"
	 viewBox="0 0 685.7 226.21" style="enable-background:new 0 0 685.7 226.21;" xml:space="preserve">
<style type="text/css">
	.st0{fill:#EAC108;}
	.st1{fill:#2D2D6E;}
	.st2{fill:#FFFFFF;}
	.st3{fill:#FEFEFF;}
	.st4{fill:#F1CCBD;}
	.st5{fill:#B5B2B1;}
	.st6{fill:#B3B0AF;}
	.st7{fill:#13130E;}
	.st8{fill:#C61E1D;}
	.st9{fill:#243F93;}
	.st10{fill:#4489C9;}
	.st11{fill:#E11C37;}
	.st12{fill:#ABDDF4;}
	.st13{fill:#E41D3D;}
	.st14{fill:#DF1B31;}
	.st15{fill:#E11D35;}
	.st16{fill:#E31D3D;}
	.st17{fill:#46BEEE;}
	.st18{fill:#2DAEE5;}
	.st19{fill:#56C1EE;}
	.st20{fill:#77CBF0;}
	.st21{fill:#60C5F0;}
	.st22{fill:#3EBBEC;}
	.st23{fill:#28ACE3;}
	.st24{fill:#92D3F2;}
	.st25{fill:#99D5F2;}
	.st26{fill:#2AABE3;}
	.st27{fill:#3BB9EB;}
	.st28{fill:#65C7F2;}
	.st29{fill:#70C9F1;}
	.st30{fill:#36B7EA;}
	.st31{fill:#32B5E9;}
	.st32{fill:#87D0F1;}
	.st33{fill:#A6DAF5;}
	.st34{fill:#2FB2E7;}
	.st35{fill:#2BB3E9;}
	.st36{fill:#33B0E6;}
	.st37{fill:#80CEF1;}
	.st38{fill:#83CEF0;}
	.st39{fill:#A2D9F4;}
	.st40{fill:#51BFEE;}
	.st41{fill:#2CB1E7;}
	.st42{fill:#34B3E8;}
	.st43{fill:#46BCED;}
	.st44{fill:#E21C3B;}
	.st45{fill:#E4203E;}
	.st46{fill:#E11F3A;}
	.st47{fill:#F5FAF6;}
	.st48{fill:#DF1D32;}
	.st49{fill:#E22E4B;}
	.st50{fill:#FBF9F9;}
	.st51{fill:#FAF8F9;}
	.st52{fill:#E11D33;}
	.st53{fill:#FBFAFA;}
	.st54{fill:#E21F33;}
	.st55{fill:#E41C3E;}
	.st56{fill:#E01E33;}
	.st57{fill:#FDFDFD;}
	.st58{fill:#E21F3B;}
	.st59{fill:#FDFCFB;}
</style>
<g>
	<path class="st9" d="M123.02,126.48c7.06,8.36,16.18,13.98,25.73,18.92c18.98,9.83,39.18,16.18,60.06,20.45
		c9.52,1.95,19.11,3.4,28.8,4.08c2.02,0.14,2.86,0.45,2.14,2.91c-2.57,8.76-4.88,17.59-7.19,26.43c-0.41,1.55-1.01,2.16-2.69,2.01
		c-31.17-2.69-61.06-10.06-89.01-24.42c-8.68-4.46-16.9-9.66-23.69-16.79c-3.76-3.95-6.93-8.28-7.63-13.95
		c-0.27-2.19,0.03-4.31,0.59-6.4c2.39-8.88,4.81-17.76,7.21-26.63c1.06,0.05,1.05,0.94,1.15,1.6c0.49,3.5,1.77,6.66,3.88,9.49
		C122.9,124.86,123.16,125.61,123.02,126.48z"/>
	<path class="st10" d="M255.61,117c-2.33-3.64-5.67-6.27-9.03-8.82c-12.93-9.84-27.6-16.3-42.8-21.63
		c-20.56-7.2-41.71-11.75-63.45-13.46c-1.66-0.13-2.15-0.49-1.65-2.25c2.53-8.95,4.98-17.93,7.35-26.93c0.42-1.58,1-2.09,2.7-1.98
		c24.09,1.68,47.34,7.06,69.84,15.69c13.57,5.2,26.57,11.51,37.88,20.83c3.8,3.14,7.25,6.62,9.8,10.89c2.39,4,3.54,8.24,2.42,12.88
		c-2.25,9.37-4.82,18.65-7.57,27.88c-0.14-0.09-0.34-0.18-0.36-0.32C260.01,125.13,257.93,121.02,255.61,117z"/>
	<path class="st9" d="M385.24,121.47c4.83,0,9.65,0.03,14.48-0.02c1.44-0.02,1.84,0.22,1.4,1.82c-4.14,15.12-8.2,30.25-12.23,45.4
		c-0.37,1.39-1.04,1.78-2.44,1.75c-3.99-0.1-7.99-0.15-11.98,0.01c-2.19,0.09-2.19-0.63-1.69-2.43c3.3-12,6.42-24.06,9.76-36.05
		c0.62-2.24-0.03-2.47-1.96-2.41c-3.82,0.11-7.66,0.13-11.48-0.01c-1.9-0.07-2.69,0.49-3.21,2.42
		c-5.73,21.21-11.57,42.38-17.39,63.57c-2,7.28-4.06,14.54-5.99,21.84c-0.37,1.38-0.92,1.88-2.36,1.85
		c-3.99-0.09-7.99-0.11-11.98,0.01c-1.91,0.06-2.39-0.24-1.82-2.31c7.5-27.02,14.84-54.08,22.36-81.1
		c3.13-11.25,5.51-22.74,10.22-33.5c2.86-6.54,6.47-12.61,12.33-16.93c8.44-6.22,17.82-7.46,27.66-4.21
		c7.46,2.46,11.39,9.61,9.43,16.15c-1.57,5.23-7.13,8.54-12.28,7.31c-4.97-1.19-7.44-5.66-5.8-10.52c0.18-0.55,0.41-1.08,0.64-1.62
		c1.69-3.98-0.04-6.34-4.37-5.87c-4.07,0.44-6.81,2.84-8.81,6.23c-2.52,4.27-3.51,9.09-4.84,13.78c-1.22,4.3-2.27,8.64-3.57,12.91
		c-0.49,1.6-0.24,2.02,1.44,1.99C375.59,121.41,380.42,121.47,385.24,121.47z"/>
	<path class="st9" d="M313.61,97.09c4.98,0.17,10.85-0.56,16.59,0.61c18.32,3.72,20.46,21.54,12.93,32.81
		c-5.03,7.53-12.45,11.23-21.22,12.52c-5.62,0.83-11.29,0.42-16.94,0.35c-2.21-0.03-2.93,0.76-3.43,2.74
		c-1.92,7.47-4.05,14.89-6,22.35c-0.39,1.48-1.01,1.97-2.54,1.93c-4.16-0.1-8.32-0.1-12.47,0c-1.77,0.04-2.29-0.26-1.75-2.21
		c4.55-16.46,8.98-32.95,13.45-49.43c1.74-6.4,3.59-12.77,5.18-19.21c0.51-2.05,1.38-2.6,3.39-2.52
		C304.79,97.2,308.79,97.09,313.61,97.09z"/>
	<path class="st10" d="M123.02,126.48c-3.32-3.86-5.15-8.35-5.67-13.39c1.48-7.85,6.21-13.21,13.05-16.93
		c8.35-4.54,17.5-6.13,26.8-7c12.72-1.19,25.4-0.29,38.06,1.01c1.85,0.19,2.53,0.64,1.91,2.77c-2.39,8.2-4.55,16.46-6.79,24.7
		c-0.94,3.44-0.94,3.44,2.22,4.27c-1.14,1.17-2.3,1.12-3.47,0.04c-3.09-1.15-6.37-1-9.57-1.27c-14.8-1.25-29.58-1.45-44.25,1.47
		c-3.43,0.69-6.79,1.67-10.05,2.94C124.45,125.39,123.46,125.51,123.02,126.48z"/>
	<path class="st9" d="M189.14,121.93c1.16-0.01,2.31-0.03,3.47-0.04c11.27,1.11,22.55,1.79,33.87,1.12
		c9.99-0.59,19.87-1.79,29.12-6.01c3.86,3.52,5.43,8,5.49,13.11c-1.22,7.56-5.74,12.68-12.16,16.39
		c-8.16,4.71-17.17,6.45-26.38,7.35c-13.31,1.3-26.58,0.5-39.83-0.96c-1.32-0.15-2-0.36-1.56-1.94
		C183.86,141.29,186.49,131.61,189.14,121.93z"/>
	<path class="st9" d="M475.9,147.13c-4.58,0-9.16,0.09-13.73-0.04c-1.83-0.05-2.4,0.6-2.18,2.28c0.14,1.07,0.14,2.16,0.31,3.22
		c1.17,7.61,6.73,11.56,14.31,10.18c3.13-0.57,6.17-1.5,8.73-3.42c1.46-1.1,1.92-0.54,2.34,0.81c0.17,0.55,0.41,1.08,0.63,1.62
		c1.77,4.37,1.79,4.41-2.55,6.52c-7.67,3.74-15.67,4.33-23.8,1.96c-9.33-2.71-14.69-10.25-15.01-20.62
		c-0.38-12.13,8.3-24.61,19.83-28.35c6.38-2.07,12.7-1.68,18.66,1.42c7.6,3.94,11.73,15.79,8.46,23.47
		c-0.47,1.11-1.24,0.92-2.02,0.93C485.22,147.14,480.56,147.13,475.9,147.13z"/>
	<path class="st9" d="M450.35,121.47c-10.89,13.81-21.36,27.08-32.15,40.77c7.98,0,15.49,0,23.04,0c-0.05,0.54-0.03,0.79-0.1,1.02
		c-0.65,2.31-0.65,5.36-2.16,6.71c-1.56,1.38-4.62,0.38-7.02,0.39c-11.64,0.03-23.28,0.02-34.93,0.02c-0.82,0-1.63,0-3.09,0
		c10.79-13.72,21.25-27.03,32.09-40.81c-1.93,0-3.38,0-4.82,0c-4.74,0-9.48-0.04-14.22,0.02c-1.26,0.02-1.46-0.27-1.19-1.54
		c1.39-6.58,1.35-6.59,8.1-6.59c11.14,0,22.29,0,33.43,0C448.12,121.47,448.92,121.47,450.35,121.47z"/>
	<path class="st9" d="M518.39,130.68c2.29-2.63,4.42-5.19,7.23-7.05c3.58-2.37,7.45-3.75,11.8-2.62c4.53,1.18,7.09,5.23,6.35,9.9
		c-0.71,4.44-4.34,7.65-8.53,7.6c-2.37-0.03-4.16-1.03-5.38-3.03c-0.52-0.85-0.93-1.76-1.43-2.62c-1.41-2.44-3.01-2.8-5.31-1.15
		c-2,1.43-3.39,3.41-4.69,5.44c-3.08,4.83-4.66,10.23-6.08,15.71c-1.34,5.14-2.8,10.26-4.11,15.41c-0.38,1.5-0.95,2.2-2.66,2.14
		c-3.99-0.14-7.99-0.11-11.98-0.01c-1.67,0.04-2.2-0.32-1.72-2.08c4.13-15.04,8.21-30.08,12.24-45.15c0.34-1.29,0.84-1.76,2.18-1.74
		c4.24,0.07,8.49,0.07,12.73,0c1.52-0.03,1.82,0.34,1.32,1.84C519.55,125.7,519.03,128.21,518.39,130.68z"/>
	<path class="st2" d="M309.52,134.82c-4.92,0-4.9,0.01-3.73-4.24c2.08-7.57,4.16-15.14,6.16-22.74c0.37-1.42,0.87-2.22,2.48-1.98
		c0.9,0.13,1.83,0.07,2.74,0.02c9.38-0.58,14.75,6.16,12.45,16.15c-1.52,6.61-7.35,11.43-14.65,12.35
		C313.01,134.62,311.04,135.07,309.52,134.82z"/>
	<path class="st3" d="M461.26,139.38c1.8-4.9,3.76-9.62,9.57-11.02c3.47-0.84,6.3,0.76,7.53,4.06c0.12,0.31,0.25,0.62,0.33,0.94
		c1.49,5.77,1.07,6.33-4.79,6.33c-3.99,0-7.98-0.01-11.98-0.02C461.77,139.66,461.63,139.54,461.26,139.38z"/>
</g>
</svg>
