<?xml version="1.0" encoding="utf-8"?>
<!-- Generator: Adobe Illustrator 25.0.0, SVG Export Plug-In . SVG Version: 6.00 Build 0)  -->
<svg version="1.1" id="Capa_1" xmlns="http://www.w3.org/2000/svg" xmlns:xlink="http://www.w3.org/1999/xlink" x="0px" y="0px"
	 viewBox="0 0 685.7 226.21" style="enable-background:new 0 0 685.7 226.21;" xml:space="preserve">
<style type="text/css">
	.st0{fill:#EAC108;}
	.st1{fill:#2D2D6E;}
	.st2{fill:#FFFFFF;}
	.st3{fill:#FEFEFF;}
	.st4{fill:#F1CCBD;}
	.st5{fill:#B5B2B1;}
	.st6{fill:#B3B0AF;}
	.st7{fill:#13130E;}
	.st8{fill:#C61E1D;}
	.st9{fill:#243F93;}
	.st10{fill:#4489C9;}
	.st11{fill:#E11C37;}
	.st12{fill:#ABDDF4;}
	.st13{fill:#E41D3D;}
	.st14{fill:#DF1B31;}
	.st15{fill:#E11D35;}
	.st16{fill:#E31D3D;}
	.st17{fill:#46BEEE;}
	.st18{fill:#2DAEE5;}
	.st19{fill:#56C1EE;}
	.st20{fill:#77CBF0;}
	.st21{fill:#60C5F0;}
	.st22{fill:#3EBBEC;}
	.st23{fill:#28ACE3;}
	.st24{fill:#92D3F2;}
	.st25{fill:#99D5F2;}
	.st26{fill:#2AABE3;}
	.st27{fill:#3BB9EB;}
	.st28{fill:#65C7F2;}
	.st29{fill:#70C9F1;}
	.st30{fill:#36B7EA;}
	.st31{fill:#32B5E9;}
	.st32{fill:#87D0F1;}
	.st33{fill:#A6DAF5;}
	.st34{fill:#2FB2E7;}
	.st35{fill:#2BB3E9;}
	.st36{fill:#33B0E6;}
	.st37{fill:#80CEF1;}
	.st38{fill:#83CEF0;}
	.st39{fill:#A2D9F4;}
	.st40{fill:#51BFEE;}
	.st41{fill:#2CB1E7;}
	.st42{fill:#34B3E8;}
	.st43{fill:#46BCED;}
	.st44{fill:#E21C3B;}
	.st45{fill:#E4203E;}
	.st46{fill:#E11F3A;}
	.st47{fill:#F5FAF6;}
	.st48{fill:#DF1D32;}
	.st49{fill:#E22E4B;}
	.st50{fill:#FBF9F9;}
	.st51{fill:#FAF8F9;}
	.st52{fill:#E11D33;}
	.st53{fill:#FBFAFA;}
	.st54{fill:#E21F33;}
	.st55{fill:#E41C3E;}
	.st56{fill:#E01E33;}
	.st57{fill:#FDFDFD;}
	.st58{fill:#E21F3B;}
	.st59{fill:#FDFCFB;}
</style>
<g>
	<path class="st4" d="M618.4,76.18c0,0.04,0,0.08,0.01,0.13c-0.17,0.21-0.42,0.24-0.66,0.24c-1.23,0.02-2.46,0.02-3.7,0
		c-0.24,0-0.49-0.03-0.66-0.24c0.01-0.04,0.01-0.08,0.01-0.13C615.07,76.18,616.73,76.18,618.4,76.18z"/>
	<path class="st5" d="M135.31,76.32c0.03-0.04,0.03-0.09,0.01-0.13c1.32,0,2.65,0,3.97,0c-0.02,0.05-0.02,0.09,0.01,0.13
		c-0.13,0.17-0.33,0.22-0.52,0.23c-0.98,0.04-1.96,0.04-2.94,0C135.64,76.53,135.44,76.48,135.31,76.32z"/>
	<path class="st6" d="M354.45,76.18c0.01,0.04,0.02,0.08,0.01,0.12c-0.84,0.41-1.68,0.4-2.52,0.01c0.01-0.04,0.01-0.08,0.01-0.13
		C352.78,76.18,353.61,76.18,354.45,76.18z"/>
	<path class="st7" d="M237.61,106.44c0,2.4,0,4.58,0,6.75c0,17.12-0.01,34.23,0.02,51.35c0,0.71-0.17,0.87-0.87,0.86
		c-5.22-0.03-10.43-0.03-15.65-0.01c-0.54,0-0.69-0.11-0.69-0.68c0.02-28.68,0.02-57.36,0-86.04c0-0.62,0.2-0.71,0.75-0.71
		c8.65,0.02,17.29,0.02,25.94,0c0.6,0,0.89,0.19,1.16,0.71c3.73,7.28,7.48,14.54,11.23,21.81c6.02,11.68,12.04,23.36,18.07,35.04
		c0.05,0.1,0.05,0.25,0.28,0.24c0-0.25,0-0.51,0-0.76c0-18.71,0-37.41-0.02-56.12c0-0.72,0.15-0.93,0.91-0.93
		c5.17,0.04,10.34,0.03,15.5,0.01c0.63,0,0.82,0.12,0.82,0.79c-0.02,28.63-0.02,57.26-0.01,85.9c0,0.55-0.1,0.74-0.71,0.74
		c-7.86-0.02-15.72-0.02-23.58,0c-0.51,0-0.72-0.19-0.94-0.59c-8.62-15.66-17.25-31.31-25.88-46.96c-2-3.63-4-7.25-6-10.87
		C237.85,106.85,237.78,106.74,237.61,106.44z"/>
	<path class="st7" d="M351.94,76.31c0.84,0,1.68,0,2.52-0.01c3.13,0.03,6.25,0.26,9.34,0.77c6.86,1.13,13.21,3.43,18.4,8.25
		c6.87,6.38,11.24,14.11,12.83,23.41c0.98,5.76,1.25,11.55,0.95,17.36c-0.35,6.78-1.63,13.37-4.51,19.59
		c-1.77,3.83-4.25,7.14-7.17,10.18c-5.39,5.59-11.97,8.85-19.54,10.27c-4.59,0.86-9.22,1.13-13.87,0.97
		c-6.71-0.24-13.27-1.34-19.3-4.43c-9.26-4.74-15.4-12.18-18.57-22.06c-1.57-4.88-2.33-9.9-2.56-15.01
		c-0.33-7.13,0.07-14.19,1.95-21.11c1.66-6.11,4.57-11.5,8.98-16.11c2.02-2.11,3.99-4.23,6.43-5.85c4.05-2.68,8.52-4.26,13.25-5.18
		C344.66,76.66,348.29,76.34,351.94,76.31z"/>
	<path class="st8" d="M444.06,141.27c0.52-1.6,1.01-3.07,1.49-4.55c6.25-19.24,12.5-38.49,18.73-57.74c0.24-0.74,0.55-1,1.35-1
		c6.54,0.04,13.08,0.02,19.62,0.02c0.82,0,0.82,0,0.56,0.78c-4.46,13.5-8.93,26.99-13.39,40.49c-4.58,13.84-9.16,27.68-13.74,41.52
		c-0.53,1.6-1.05,3.19-1.56,4.8c-0.13,0.43-0.31,0.62-0.81,0.62c-8.47-0.02-16.95-0.02-25.42,0c-0.46,0-0.63-0.17-0.75-0.57
		c-6.54-20.41-13.09-40.81-19.64-61.21c-2.75-8.57-5.5-17.13-8.26-25.69c-0.2-0.61-0.1-0.75,0.56-0.74c6.66,0.03,13.32,0.02,19.99,0
		c0.56,0,0.81,0.15,0.98,0.69c4.31,13.36,8.65,26.72,12.98,40.08c2.36,7.28,4.71,14.57,7.07,21.85
		C443.87,140.79,443.94,140.96,444.06,141.27z"/>
	<path class="st7" d="M135.31,76.32c1.33,0,2.66,0,3.98,0c3.38-0.02,6.75,0.16,10.11,0.48c4.14,0.39,8.23,1.04,12.29,1.92
		c0.4,0.09,0.53,0.26,0.52,0.69c-0.02,4.79-0.02,9.58,0,14.38c0,0.51-0.11,0.57-0.6,0.48c-3.72-0.68-7.45-1.3-11.21-1.74
		c-2.91-0.34-5.83-0.59-8.77-0.68c-2.74-0.09-5.48-0.06-8.19,0.34c-2.04,0.3-4.02,0.8-5.79,1.9c-2.11,1.3-3.1,3.18-3.11,5.67
		c-0.01,2.57,1.2,4.2,3.48,5.22c4.83,2.15,9.75,4.07,14.47,6.46c5.37,2.73,10.67,5.6,15.55,9.16c3.83,2.79,6.81,6.21,8.2,10.83
		c1.04,3.45,1.26,6.99,1.03,10.57c-0.19,3.02-0.79,5.93-2.04,8.69c-2.01,4.43-5.38,7.6-9.42,10.16c-5.08,3.21-10.63,5.02-16.57,5.74
		c-5.7,0.69-11.41,0.67-17.13,0.29c-5.89-0.39-11.67-1.36-17.36-2.94c-0.7-0.19-0.88-0.49-0.88-1.18
		c0.03-5.18,0.02-10.37,0.01-15.55c0-0.54,0.03-0.72,0.66-0.49c4.98,1.79,10.06,3.23,15.29,4.11c4.7,0.79,9.42,1.13,14.16,0.47
		c2.53-0.35,4.97-1.01,7.11-2.5c2.62-1.82,3.74-4.97,2.78-7.77c-0.19-0.56-0.5-1.05-0.85-1.52c-1.57-2.1-3.55-3.63-5.97-4.66
		c-5.37-2.3-10.71-4.66-15.91-7.33c-3.93-2.01-7.84-4.06-11.54-6.48c-0.84-0.55-1.6-1.17-2.23-1.98c-2.69-3.45-4.9-7.15-5.59-11.52
		c-1.32-8.31,0.23-15.87,6.29-22.11c2.64-2.72,6.01-4.3,9.46-5.7c4.64-1.89,9.49-2.91,14.5-3.27
		C133.11,76.38,134.21,76.35,135.31,76.32z"/>
	<path class="st8" d="M520.31,102.15c-6.52,21.2-13,42.27-19.46,63.34c-0.18,0.58-0.42,0.73-1,0.73c-6.64-0.02-13.28-0.03-19.91,0
		c-0.71,0-0.72-0.2-0.54-0.77c5.05-15.74,10.1-31.48,15.14-47.23c4.21-13.14,8.42-26.28,12.62-39.43c0.19-0.61,0.45-0.81,1.11-0.81
		c8.35,0.03,16.7,0.02,25.06,0c0.57,0,0.8,0.17,0.97,0.7c7.78,24.29,15.58,48.57,23.37,72.85c1.5,4.67,2.98,9.34,4.5,14
		c0.2,0.62,0.03,0.68-0.52,0.68c-6.71-0.01-13.42-0.02-20.13,0c-0.52,0-0.7-0.18-0.85-0.64c-6.67-20.88-13.35-41.76-20.03-62.63
		C520.53,102.72,520.44,102.49,520.31,102.15z"/>
	<path class="st8" d="M613.4,76.31c1.67,0,3.34,0,5.01,0c3.13,0.03,6.26,0.11,9.37,0.6c0.73,0.11,1.43,0.27,2.11,0.58
		c1.86,0.85,3.87,1.2,5.85,1.62c1.95,0.42,1.95,0.42,1.95,2.41c0,4.55,0,9.1,0,13.64c0,0.26,0,0.52,0,0.86
		c-2.04-0.7-4.01-1.35-6.01-1.88c-5.24-1.38-10.55-2.43-15.99-2.38c-6.51,0.06-12.56,1.63-17.54,6.09
		c-4.29,3.84-7.29,8.56-8.76,14.13c-2.16,8.16-2.13,16.29,1.54,24.05c4.03,8.5,10.75,13.64,20.15,15.13
		c4.67,0.74,9.32,0.48,13.97-0.1c4.28-0.53,8.49-1.36,12.63-2.84c0,0.28,0,0.49,0,0.71c0,4.96-0.01,9.93,0.01,14.89
		c0,0.54-0.17,0.74-0.68,0.9c-2.77,0.84-5.59,1.35-8.49,1.5c-1.72,0.09-3.42,0.54-5.16,0.66c-4.45,0.32-8.9,0.32-13.35,0.05
		c-5.49-0.33-10.88-1.26-16.1-3.03c-4.95-1.68-9.55-4.03-13.63-7.3c-2.94-2.35-5.14-5.36-7.09-8.53
		c-3.57-5.79-5.53-12.14-6.25-18.88c-0.73-6.88-0.42-13.7,1.15-20.45c2.34-10.07,7.93-17.86,16.42-23.67
		c6.84-4.68,14.39-7.36,22.59-8.35C609.19,76.5,611.29,76.35,613.4,76.31z"/>
	<path class="st7" d="M182.74,122.1c0-14.4,0.01-28.8-0.02-43.2c0-0.8,0.24-0.94,0.97-0.93c6.59,0.03,13.17,0.02,19.76,0
		c0.62,0,0.76,0.17,0.76,0.77c-0.01,28.9-0.01,57.79,0,86.69c0,0.62-0.11,0.83-0.79,0.82c-6.64-0.03-13.27-0.03-19.91,0
		c-0.67,0-0.79-0.19-0.79-0.81C182.75,150.99,182.74,136.54,182.74,122.1z"/>
	<path class="st2" d="M375.48,121.17c0.02,5.28-0.37,9.97-1.9,14.51c-0.87,2.59-2.15,4.94-3.8,7.11c-0.9,1.18-1.64,2.48-2.68,3.56
		c-2.62,2.71-5.86,4.27-9.53,4.9c-4.26,0.73-8.47,0.52-12.53-1.11c-3.28-1.32-5.79-3.53-7.71-6.48c-2.76-4.24-4.68-8.79-5.59-13.76
		c-0.74-4.04-0.85-8.1-0.54-12.18c0.46-6.07,2.26-11.72,5.14-17.06c2.07-3.83,5.24-6.33,9.32-7.64c6.26-2.01,12.41-1.72,18.3,1.38
		c3.62,1.9,5.85,5.09,7.7,8.59c2.08,3.94,3.1,8.17,3.54,12.57C375.4,117.59,375.51,119.64,375.48,121.17z"/>
</g>
</svg>
